<?xml version="1.0" standalone="no"?>
<!DOCTYPE svg PUBLIC "-//W3C//DTD SVG 20010904//EN"
 "http://www.w3.org/TR/2001/REC-SVG-20010904/DTD/svg10.dtd">
<svg version="1.0" xmlns="http://www.w3.org/2000/svg"
 width="480.000000pt" height="330.000000pt" viewBox="0 0 480.000000 330.000000"
 preserveAspectRatio="xMidYMid meet">
<metadata>
Created by potrace 1.15, written by Peter Selinger 2001-2017
</metadata>
<g transform="translate(0.000000,330.000000) scale(0.100000,-0.100000)"
fill="#000000" stroke="none">
<path d="M1784 3110 c-40 -16 -64 -59 -64 -112 0 -44 4 -54 34 -84 l34 -34
-85 -40 c-47 -22 -86 -40 -88 -40 -2 0 -37 -16 -79 -35 l-75 -36 25 -57 c14
-31 28 -62 31 -69 2 -6 22 -19 44 -27 l39 -16 388 176 c213 97 388 178 390
179 1 1 -17 45 -41 98 l-43 96 -40 -18 c-21 -10 -59 -27 -84 -39 -154 -70
-203 -92 -207 -92 -3 0 -3 9 0 20 9 34 -12 87 -44 114 -32 27 -91 34 -135 16z
m114 -67 c28 -31 24 -75 -10 -104 -24 -22 -34 -23 -75 -9 -33 12 -54 47 -48
81 6 29 36 61 52 55 7 -3 13 -1 13 5 0 17 43 -1 68 -28z"/>
<path d="M754 2915 c-4 -8 -4 -246 0 -528 3 -282 6 -580 6 -663 l0 -150 123
-52 c126 -54 147 -60 147 -41 0 6 25 68 56 138 65 148 112 254 129 296 20 45
77 176 133 305 27 63 62 143 76 177 27 64 75 172 83 185 2 4 -20 19 -49 32
-29 13 -195 88 -368 166 -173 78 -318 144 -323 147 -4 2 -10 -3 -13 -12z"/>
<path d="M1729 1412 l-76 -37 73 -160 c40 -88 74 -164 76 -168 3 -7 321 132
335 146 2 2 1 11 -2 19 -6 14 -10 14 -36 1 -56 -28 -124 19 -124 87 0 56 -19
34 -35 -40 -7 -33 -18 -60 -24 -60 -6 1 -35 11 -64 24 -43 18 -50 25 -39 34
10 9 22 9 46 1 37 -13 36 -14 44 28 5 27 3 32 -19 37 -32 8 -66 63 -61 99 4
34 -1 33 -94 -11z"/>
<path d="M3056 938 c-9 -12 -16 -30 -16 -40 0 -32 -34 -40 -82 -18 -23 11 -51
20 -61 20 -29 0 -73 -51 -81 -95 -10 -50 -22 -65 -52 -65 -28 0 -28 1 -13 34
19 42 -9 106 -47 106 -22 0 -64 -46 -64 -69 0 -11 11 -33 25 -49 l26 -30 -23
-8 c-13 -5 -50 -8 -82 -9 -33 0 -61 -5 -63 -10 -2 -6 15 -9 42 -7 l45 4 -6
-31 c-7 -35 8 -61 37 -61 25 0 43 35 29 59 -14 27 -14 28 21 45 18 9 42 13 60
9 43 -8 76 18 84 66 7 44 38 91 59 91 8 0 35 -9 61 -21 57 -25 91 -16 101 28
10 42 23 53 61 53 20 0 32 4 28 10 -12 20 -73 11 -89 -12z"/>
</g>
</svg>
